<mxfile host="app.diagrams.net" agent="Mozilla/5.0 (Windows NT 10.0; Win64; x64) AppleWebKit/537.36 (KHTML, like Gecko) Chrome/130.0.0.0 Safari/537.36" version="24.8.2">
  <diagram name="PÃ¡gina-1" id="21WvEv9-Ovl9Hjyf1WIs">
    <mxGraphModel dx="1136" dy="1702" grid="1" gridSize="10" guides="1" tooltips="1" connect="1" arrows="1" fold="1" page="1" pageScale="1" pageWidth="827" pageHeight="1169" math="0" shadow="0">
      <root>
        <mxCell id="0" />
        <mxCell id="1" parent="0" />
        <mxCell id="SaRBF44kkJoaySxIrmh5-38" style="edgeStyle=orthogonalEdgeStyle;rounded=0;orthogonalLoop=1;jettySize=auto;html=1;entryX=0;entryY=0.5;entryDx=0;entryDy=0;" edge="1" parent="1" source="SaRBF44kkJoaySxIrmh5-1" target="SaRBF44kkJoaySxIrmh5-37">
          <mxGeometry relative="1" as="geometry" />
        </mxCell>
        <mxCell id="SaRBF44kkJoaySxIrmh5-41" value="1" style="edgeLabel;html=1;align=center;verticalAlign=middle;resizable=0;points=[];" vertex="1" connectable="0" parent="SaRBF44kkJoaySxIrmh5-38">
          <mxGeometry x="-0.505" y="3" relative="1" as="geometry">
            <mxPoint as="offset" />
          </mxGeometry>
        </mxCell>
        <mxCell id="SaRBF44kkJoaySxIrmh5-42" value="1" style="edgeLabel;html=1;align=center;verticalAlign=middle;resizable=0;points=[];" vertex="1" connectable="0" parent="SaRBF44kkJoaySxIrmh5-38">
          <mxGeometry x="0.5832" y="1" relative="1" as="geometry">
            <mxPoint as="offset" />
          </mxGeometry>
        </mxCell>
        <mxCell id="SaRBF44kkJoaySxIrmh5-47" style="edgeStyle=orthogonalEdgeStyle;rounded=0;orthogonalLoop=1;jettySize=auto;html=1;entryX=0.5;entryY=0;entryDx=0;entryDy=0;" edge="1" parent="1" source="SaRBF44kkJoaySxIrmh5-1" target="SaRBF44kkJoaySxIrmh5-45">
          <mxGeometry relative="1" as="geometry" />
        </mxCell>
        <mxCell id="SaRBF44kkJoaySxIrmh5-57" value="1" style="edgeLabel;html=1;align=center;verticalAlign=middle;resizable=0;points=[];" vertex="1" connectable="0" parent="SaRBF44kkJoaySxIrmh5-47">
          <mxGeometry x="-0.8727" y="1" relative="1" as="geometry">
            <mxPoint as="offset" />
          </mxGeometry>
        </mxCell>
        <mxCell id="SaRBF44kkJoaySxIrmh5-58" value="1" style="edgeLabel;html=1;align=center;verticalAlign=middle;resizable=0;points=[];" vertex="1" connectable="0" parent="SaRBF44kkJoaySxIrmh5-47">
          <mxGeometry x="0.6818" y="-4" relative="1" as="geometry">
            <mxPoint as="offset" />
          </mxGeometry>
        </mxCell>
        <mxCell id="SaRBF44kkJoaySxIrmh5-53" style="edgeStyle=orthogonalEdgeStyle;rounded=0;orthogonalLoop=1;jettySize=auto;html=1;entryX=0;entryY=0.5;entryDx=0;entryDy=0;" edge="1" parent="1" source="SaRBF44kkJoaySxIrmh5-1" target="SaRBF44kkJoaySxIrmh5-2">
          <mxGeometry relative="1" as="geometry" />
        </mxCell>
        <mxCell id="SaRBF44kkJoaySxIrmh5-54" style="edgeStyle=orthogonalEdgeStyle;rounded=0;orthogonalLoop=1;jettySize=auto;html=1;entryX=0;entryY=0.5;entryDx=0;entryDy=0;" edge="1" parent="1" source="SaRBF44kkJoaySxIrmh5-1" target="SaRBF44kkJoaySxIrmh5-3">
          <mxGeometry relative="1" as="geometry" />
        </mxCell>
        <mxCell id="SaRBF44kkJoaySxIrmh5-112" style="edgeStyle=orthogonalEdgeStyle;rounded=0;orthogonalLoop=1;jettySize=auto;html=1;entryX=0;entryY=0.5;entryDx=0;entryDy=0;" edge="1" parent="1" source="SaRBF44kkJoaySxIrmh5-1" target="SaRBF44kkJoaySxIrmh5-111">
          <mxGeometry relative="1" as="geometry" />
        </mxCell>
        <mxCell id="SaRBF44kkJoaySxIrmh5-1" value="Animal" style="rounded=1;whiteSpace=wrap;html=1;" vertex="1" parent="1">
          <mxGeometry x="390" y="160" width="120" height="60" as="geometry" />
        </mxCell>
        <mxCell id="SaRBF44kkJoaySxIrmh5-2" value="Nombre" style="ellipse;whiteSpace=wrap;html=1;fontStyle=0" vertex="1" parent="1">
          <mxGeometry x="550" y="120" width="100" height="40" as="geometry" />
        </mxCell>
        <mxCell id="SaRBF44kkJoaySxIrmh5-3" value="FechaNacimiento" style="ellipse;whiteSpace=wrap;html=1;" vertex="1" parent="1">
          <mxGeometry x="552" y="190" width="100" height="40" as="geometry" />
        </mxCell>
        <mxCell id="SaRBF44kkJoaySxIrmh5-29" style="edgeStyle=orthogonalEdgeStyle;rounded=0;orthogonalLoop=1;jettySize=auto;html=1;entryX=0;entryY=0.5;entryDx=0;entryDy=0;" edge="1" parent="1" source="SaRBF44kkJoaySxIrmh5-8" target="SaRBF44kkJoaySxIrmh5-9">
          <mxGeometry relative="1" as="geometry" />
        </mxCell>
        <mxCell id="SaRBF44kkJoaySxIrmh5-30" style="edgeStyle=orthogonalEdgeStyle;rounded=0;orthogonalLoop=1;jettySize=auto;html=1;" edge="1" parent="1" source="SaRBF44kkJoaySxIrmh5-8">
          <mxGeometry relative="1" as="geometry">
            <mxPoint x="750" y="40" as="targetPoint" />
          </mxGeometry>
        </mxCell>
        <mxCell id="SaRBF44kkJoaySxIrmh5-31" style="edgeStyle=orthogonalEdgeStyle;rounded=0;orthogonalLoop=1;jettySize=auto;html=1;entryX=0;entryY=0.5;entryDx=0;entryDy=0;" edge="1" parent="1" source="SaRBF44kkJoaySxIrmh5-8" target="SaRBF44kkJoaySxIrmh5-97">
          <mxGeometry relative="1" as="geometry">
            <mxPoint x="712" y="120" as="targetPoint" />
          </mxGeometry>
        </mxCell>
        <mxCell id="SaRBF44kkJoaySxIrmh5-39" style="edgeStyle=orthogonalEdgeStyle;rounded=0;orthogonalLoop=1;jettySize=auto;html=1;entryX=1;entryY=0.5;entryDx=0;entryDy=0;" edge="1" parent="1" source="SaRBF44kkJoaySxIrmh5-8" target="SaRBF44kkJoaySxIrmh5-37">
          <mxGeometry relative="1" as="geometry" />
        </mxCell>
        <mxCell id="SaRBF44kkJoaySxIrmh5-40" value="1" style="edgeLabel;html=1;align=center;verticalAlign=middle;resizable=0;points=[];" vertex="1" connectable="0" parent="SaRBF44kkJoaySxIrmh5-39">
          <mxGeometry x="-0.7133" y="1" relative="1" as="geometry">
            <mxPoint as="offset" />
          </mxGeometry>
        </mxCell>
        <mxCell id="SaRBF44kkJoaySxIrmh5-43" value="n" style="edgeLabel;html=1;align=center;verticalAlign=middle;resizable=0;points=[];" vertex="1" connectable="0" parent="SaRBF44kkJoaySxIrmh5-39">
          <mxGeometry x="0.5667" y="1" relative="1" as="geometry">
            <mxPoint as="offset" />
          </mxGeometry>
        </mxCell>
        <mxCell id="SaRBF44kkJoaySxIrmh5-110" style="edgeStyle=orthogonalEdgeStyle;rounded=0;orthogonalLoop=1;jettySize=auto;html=1;entryX=0;entryY=0.5;entryDx=0;entryDy=0;" edge="1" parent="1" source="SaRBF44kkJoaySxIrmh5-8" target="SaRBF44kkJoaySxIrmh5-109">
          <mxGeometry relative="1" as="geometry" />
        </mxCell>
        <mxCell id="SaRBF44kkJoaySxIrmh5-8" value="Especie" style="rounded=1;whiteSpace=wrap;html=1;" vertex="1" parent="1">
          <mxGeometry x="550" y="10" width="120" height="60" as="geometry" />
        </mxCell>
        <mxCell id="SaRBF44kkJoaySxIrmh5-9" value="NombreCientifico" style="ellipse;whiteSpace=wrap;html=1;fontStyle=0" vertex="1" parent="1">
          <mxGeometry x="712" y="-70" width="100" height="50" as="geometry" />
        </mxCell>
        <mxCell id="SaRBF44kkJoaySxIrmh5-48" style="edgeStyle=orthogonalEdgeStyle;rounded=0;orthogonalLoop=1;jettySize=auto;html=1;entryX=0.5;entryY=1;entryDx=0;entryDy=0;" edge="1" parent="1" source="SaRBF44kkJoaySxIrmh5-12" target="SaRBF44kkJoaySxIrmh5-45">
          <mxGeometry relative="1" as="geometry" />
        </mxCell>
        <mxCell id="SaRBF44kkJoaySxIrmh5-56" value="n" style="edgeLabel;html=1;align=center;verticalAlign=middle;resizable=0;points=[];" vertex="1" connectable="0" parent="SaRBF44kkJoaySxIrmh5-48">
          <mxGeometry x="0.36" relative="1" as="geometry">
            <mxPoint as="offset" />
          </mxGeometry>
        </mxCell>
        <mxCell id="SaRBF44kkJoaySxIrmh5-51" style="edgeStyle=orthogonalEdgeStyle;rounded=0;orthogonalLoop=1;jettySize=auto;html=1;entryX=1;entryY=0.5;entryDx=0;entryDy=0;" edge="1" parent="1" source="SaRBF44kkJoaySxIrmh5-12" target="SaRBF44kkJoaySxIrmh5-95">
          <mxGeometry relative="1" as="geometry">
            <mxPoint x="100" y="20" as="targetPoint" />
          </mxGeometry>
        </mxCell>
        <mxCell id="SaRBF44kkJoaySxIrmh5-75" style="edgeStyle=orthogonalEdgeStyle;rounded=0;orthogonalLoop=1;jettySize=auto;html=1;entryX=1;entryY=0.5;entryDx=0;entryDy=0;" edge="1" parent="1" source="SaRBF44kkJoaySxIrmh5-12" target="SaRBF44kkJoaySxIrmh5-13">
          <mxGeometry relative="1" as="geometry" />
        </mxCell>
        <mxCell id="SaRBF44kkJoaySxIrmh5-76" style="edgeStyle=orthogonalEdgeStyle;rounded=0;orthogonalLoop=1;jettySize=auto;html=1;entryX=0.5;entryY=0;entryDx=0;entryDy=0;" edge="1" parent="1" source="SaRBF44kkJoaySxIrmh5-12" target="SaRBF44kkJoaySxIrmh5-74">
          <mxGeometry relative="1" as="geometry" />
        </mxCell>
        <mxCell id="SaRBF44kkJoaySxIrmh5-80" value="1" style="edgeLabel;html=1;align=center;verticalAlign=middle;resizable=0;points=[];" vertex="1" connectable="0" parent="SaRBF44kkJoaySxIrmh5-76">
          <mxGeometry x="-0.1704" y="2" relative="1" as="geometry">
            <mxPoint as="offset" />
          </mxGeometry>
        </mxCell>
        <mxCell id="SaRBF44kkJoaySxIrmh5-81" value="n" style="edgeLabel;html=1;align=center;verticalAlign=middle;resizable=0;points=[];" vertex="1" connectable="0" parent="SaRBF44kkJoaySxIrmh5-76">
          <mxGeometry x="0.837" y="-1" relative="1" as="geometry">
            <mxPoint as="offset" />
          </mxGeometry>
        </mxCell>
        <mxCell id="SaRBF44kkJoaySxIrmh5-94" value="1" style="edgeLabel;html=1;align=center;verticalAlign=middle;resizable=0;points=[];" vertex="1" connectable="0" parent="SaRBF44kkJoaySxIrmh5-76">
          <mxGeometry x="-0.7651" relative="1" as="geometry">
            <mxPoint as="offset" />
          </mxGeometry>
        </mxCell>
        <mxCell id="SaRBF44kkJoaySxIrmh5-103" style="edgeStyle=orthogonalEdgeStyle;rounded=0;orthogonalLoop=1;jettySize=auto;html=1;" edge="1" parent="1" source="SaRBF44kkJoaySxIrmh5-12" target="SaRBF44kkJoaySxIrmh5-99">
          <mxGeometry relative="1" as="geometry" />
        </mxCell>
        <mxCell id="SaRBF44kkJoaySxIrmh5-107" value="" style="edgeStyle=orthogonalEdgeStyle;rounded=0;orthogonalLoop=1;jettySize=auto;html=1;" edge="1" parent="1" source="SaRBF44kkJoaySxIrmh5-12" target="SaRBF44kkJoaySxIrmh5-106">
          <mxGeometry relative="1" as="geometry" />
        </mxCell>
        <mxCell id="SaRBF44kkJoaySxIrmh5-12" value="Habitat" style="rounded=1;whiteSpace=wrap;html=1;" vertex="1" parent="1">
          <mxGeometry x="140" y="10" width="120" height="60" as="geometry" />
        </mxCell>
        <mxCell id="SaRBF44kkJoaySxIrmh5-13" value="Nombre" style="ellipse;whiteSpace=wrap;html=1;fontStyle=0" vertex="1" parent="1">
          <mxGeometry y="-70" width="100" height="40" as="geometry" />
        </mxCell>
        <mxCell id="SaRBF44kkJoaySxIrmh5-21" style="edgeStyle=orthogonalEdgeStyle;rounded=0;orthogonalLoop=1;jettySize=auto;html=1;entryX=0;entryY=0.5;entryDx=0;entryDy=0;" edge="1" parent="1" source="SaRBF44kkJoaySxIrmh5-17" target="SaRBF44kkJoaySxIrmh5-18">
          <mxGeometry relative="1" as="geometry" />
        </mxCell>
        <mxCell id="SaRBF44kkJoaySxIrmh5-22" style="edgeStyle=orthogonalEdgeStyle;rounded=0;orthogonalLoop=1;jettySize=auto;html=1;" edge="1" parent="1" source="SaRBF44kkJoaySxIrmh5-17" target="SaRBF44kkJoaySxIrmh5-19">
          <mxGeometry relative="1" as="geometry">
            <Array as="points">
              <mxPoint x="695" y="410" />
              <mxPoint x="695" y="380" />
            </Array>
          </mxGeometry>
        </mxCell>
        <mxCell id="SaRBF44kkJoaySxIrmh5-23" style="edgeStyle=orthogonalEdgeStyle;rounded=0;orthogonalLoop=1;jettySize=auto;html=1;" edge="1" parent="1" source="SaRBF44kkJoaySxIrmh5-17" target="SaRBF44kkJoaySxIrmh5-90">
          <mxGeometry relative="1" as="geometry">
            <mxPoint x="722.0000000000055" y="450" as="targetPoint" />
          </mxGeometry>
        </mxCell>
        <mxCell id="SaRBF44kkJoaySxIrmh5-62" style="edgeStyle=orthogonalEdgeStyle;rounded=0;orthogonalLoop=1;jettySize=auto;html=1;entryX=0.5;entryY=1;entryDx=0;entryDy=0;" edge="1" parent="1" source="SaRBF44kkJoaySxIrmh5-17" target="SaRBF44kkJoaySxIrmh5-61">
          <mxGeometry relative="1" as="geometry" />
        </mxCell>
        <mxCell id="SaRBF44kkJoaySxIrmh5-66" value="1" style="edgeLabel;html=1;align=center;verticalAlign=middle;resizable=0;points=[];" vertex="1" connectable="0" parent="SaRBF44kkJoaySxIrmh5-62">
          <mxGeometry x="-0.8421" y="-2" relative="1" as="geometry">
            <mxPoint as="offset" />
          </mxGeometry>
        </mxCell>
        <mxCell id="SaRBF44kkJoaySxIrmh5-68" value="n" style="edgeLabel;html=1;align=center;verticalAlign=middle;resizable=0;points=[];" vertex="1" connectable="0" parent="SaRBF44kkJoaySxIrmh5-62">
          <mxGeometry x="0.7237" relative="1" as="geometry">
            <mxPoint as="offset" />
          </mxGeometry>
        </mxCell>
        <mxCell id="SaRBF44kkJoaySxIrmh5-114" style="edgeStyle=orthogonalEdgeStyle;rounded=0;orthogonalLoop=1;jettySize=auto;html=1;entryX=0;entryY=0.5;entryDx=0;entryDy=0;" edge="1" parent="1" source="SaRBF44kkJoaySxIrmh5-17" target="SaRBF44kkJoaySxIrmh5-113">
          <mxGeometry relative="1" as="geometry" />
        </mxCell>
        <mxCell id="SaRBF44kkJoaySxIrmh5-17" value="Cuidador" style="rounded=1;whiteSpace=wrap;html=1;" vertex="1" parent="1">
          <mxGeometry x="552" y="380" width="120" height="60" as="geometry" />
        </mxCell>
        <mxCell id="SaRBF44kkJoaySxIrmh5-18" value="Nombre" style="ellipse;whiteSpace=wrap;html=1;fontStyle=0" vertex="1" parent="1">
          <mxGeometry x="722" y="310" width="100" height="40" as="geometry" />
        </mxCell>
        <mxCell id="SaRBF44kkJoaySxIrmh5-19" value="FechaContratacion" style="ellipse;whiteSpace=wrap;html=1;" vertex="1" parent="1">
          <mxGeometry x="727" y="360" width="110" height="40" as="geometry" />
        </mxCell>
        <mxCell id="SaRBF44kkJoaySxIrmh5-35" style="edgeStyle=orthogonalEdgeStyle;rounded=0;orthogonalLoop=1;jettySize=auto;html=1;" edge="1" parent="1" source="SaRBF44kkJoaySxIrmh5-32" target="SaRBF44kkJoaySxIrmh5-33">
          <mxGeometry relative="1" as="geometry" />
        </mxCell>
        <mxCell id="SaRBF44kkJoaySxIrmh5-36" style="edgeStyle=orthogonalEdgeStyle;rounded=0;orthogonalLoop=1;jettySize=auto;html=1;entryX=0;entryY=0.5;entryDx=0;entryDy=0;" edge="1" parent="1" source="SaRBF44kkJoaySxIrmh5-32" target="SaRBF44kkJoaySxIrmh5-102">
          <mxGeometry relative="1" as="geometry">
            <mxPoint x="290" y="580" as="targetPoint" />
          </mxGeometry>
        </mxCell>
        <mxCell id="SaRBF44kkJoaySxIrmh5-77" style="edgeStyle=orthogonalEdgeStyle;rounded=0;orthogonalLoop=1;jettySize=auto;html=1;" edge="1" parent="1" source="SaRBF44kkJoaySxIrmh5-32" target="SaRBF44kkJoaySxIrmh5-74">
          <mxGeometry relative="1" as="geometry" />
        </mxCell>
        <mxCell id="SaRBF44kkJoaySxIrmh5-78" value="1" style="edgeLabel;html=1;align=center;verticalAlign=middle;resizable=0;points=[];" vertex="1" connectable="0" parent="SaRBF44kkJoaySxIrmh5-77">
          <mxGeometry x="-0.7143" y="3" relative="1" as="geometry">
            <mxPoint as="offset" />
          </mxGeometry>
        </mxCell>
        <mxCell id="SaRBF44kkJoaySxIrmh5-79" value="n" style="edgeLabel;html=1;align=center;verticalAlign=middle;resizable=0;points=[];" vertex="1" connectable="0" parent="SaRBF44kkJoaySxIrmh5-77">
          <mxGeometry x="0.819" y="2" relative="1" as="geometry">
            <mxPoint as="offset" />
          </mxGeometry>
        </mxCell>
        <mxCell id="SaRBF44kkJoaySxIrmh5-116" style="edgeStyle=orthogonalEdgeStyle;rounded=0;orthogonalLoop=1;jettySize=auto;html=1;entryX=0;entryY=0.5;entryDx=0;entryDy=0;" edge="1" parent="1" source="SaRBF44kkJoaySxIrmh5-32" target="SaRBF44kkJoaySxIrmh5-115">
          <mxGeometry relative="1" as="geometry" />
        </mxCell>
        <mxCell id="SaRBF44kkJoaySxIrmh5-32" value="Visitante" style="rounded=1;whiteSpace=wrap;html=1;" vertex="1" parent="1">
          <mxGeometry x="100" y="470" width="120" height="60" as="geometry" />
        </mxCell>
        <mxCell id="SaRBF44kkJoaySxIrmh5-33" value="Nombre" style="ellipse;whiteSpace=wrap;html=1;fontStyle=0" vertex="1" parent="1">
          <mxGeometry x="280" y="430" width="100" height="40" as="geometry" />
        </mxCell>
        <mxCell id="SaRBF44kkJoaySxIrmh5-37" value="Pertenece" style="rhombus;whiteSpace=wrap;html=1;" vertex="1" parent="1">
          <mxGeometry x="400" y="20" width="70" height="50" as="geometry" />
        </mxCell>
        <mxCell id="SaRBF44kkJoaySxIrmh5-44" value="1:N" style="text;html=1;align=center;verticalAlign=middle;resizable=0;points=[];autosize=1;strokeColor=none;fillColor=none;" vertex="1" parent="1">
          <mxGeometry x="415" width="40" height="30" as="geometry" />
        </mxCell>
        <mxCell id="SaRBF44kkJoaySxIrmh5-45" value="Vive" style="rhombus;whiteSpace=wrap;html=1;" vertex="1" parent="1">
          <mxGeometry x="250" y="140" width="50" height="40" as="geometry" />
        </mxCell>
        <mxCell id="SaRBF44kkJoaySxIrmh5-59" value="1:N" style="text;html=1;align=center;verticalAlign=middle;resizable=0;points=[];autosize=1;strokeColor=none;fillColor=none;" vertex="1" parent="1">
          <mxGeometry x="210" y="145" width="40" height="30" as="geometry" />
        </mxCell>
        <mxCell id="SaRBF44kkJoaySxIrmh5-61" value="Cargo" style="rhombus;whiteSpace=wrap;html=1;" vertex="1" parent="1">
          <mxGeometry x="430" y="310" width="50" height="40" as="geometry" />
        </mxCell>
        <mxCell id="SaRBF44kkJoaySxIrmh5-63" style="edgeStyle=orthogonalEdgeStyle;rounded=0;orthogonalLoop=1;jettySize=auto;html=1;entryX=0.592;entryY=1.017;entryDx=0;entryDy=0;entryPerimeter=0;" edge="1" parent="1" source="SaRBF44kkJoaySxIrmh5-61" target="SaRBF44kkJoaySxIrmh5-1">
          <mxGeometry relative="1" as="geometry" />
        </mxCell>
        <mxCell id="SaRBF44kkJoaySxIrmh5-71" value="1" style="edgeLabel;html=1;align=center;verticalAlign=middle;resizable=0;points=[];" vertex="1" connectable="0" parent="SaRBF44kkJoaySxIrmh5-63">
          <mxGeometry x="0.4892" relative="1" as="geometry">
            <mxPoint as="offset" />
          </mxGeometry>
        </mxCell>
        <mxCell id="SaRBF44kkJoaySxIrmh5-72" value="1" style="edgeLabel;html=1;align=center;verticalAlign=middle;resizable=0;points=[];" vertex="1" connectable="0" parent="SaRBF44kkJoaySxIrmh5-63">
          <mxGeometry x="-0.7333" relative="1" as="geometry">
            <mxPoint as="offset" />
          </mxGeometry>
        </mxCell>
        <mxCell id="SaRBF44kkJoaySxIrmh5-73" value="1:N" style="text;html=1;align=center;verticalAlign=middle;resizable=0;points=[];autosize=1;strokeColor=none;fillColor=none;" vertex="1" parent="1">
          <mxGeometry x="470" y="310" width="40" height="30" as="geometry" />
        </mxCell>
        <mxCell id="SaRBF44kkJoaySxIrmh5-74" value="Visitar" style="rhombus;whiteSpace=wrap;html=1;" vertex="1" parent="1">
          <mxGeometry x="80" y="260" width="60" height="40" as="geometry" />
        </mxCell>
        <mxCell id="SaRBF44kkJoaySxIrmh5-82" value="N:N" style="text;html=1;align=center;verticalAlign=middle;resizable=0;points=[];autosize=1;strokeColor=none;fillColor=none;" vertex="1" parent="1">
          <mxGeometry x="140" y="265" width="40" height="30" as="geometry" />
        </mxCell>
        <mxCell id="SaRBF44kkJoaySxIrmh5-90" value="Especialidad" style="ellipse;shape=doubleEllipse;margin=3;whiteSpace=wrap;html=1;align=center;" vertex="1" parent="1">
          <mxGeometry x="727" y="440" width="100" height="40" as="geometry" />
        </mxCell>
        <mxCell id="SaRBF44kkJoaySxIrmh5-95" value="Clima" style="ellipse;shape=doubleEllipse;margin=3;whiteSpace=wrap;html=1;align=center;" vertex="1" parent="1">
          <mxGeometry y="10" width="100" height="40" as="geometry" />
        </mxCell>
        <mxCell id="SaRBF44kkJoaySxIrmh5-97" value="EstadoConservacion" style="ellipse;shape=doubleEllipse;margin=3;whiteSpace=wrap;html=1;align=center;" vertex="1" parent="1">
          <mxGeometry x="712" y="90" width="120" height="50" as="geometry" />
        </mxCell>
        <mxCell id="SaRBF44kkJoaySxIrmh5-99" value="Ubicacion" style="ellipse;shape=doubleEllipse;margin=3;whiteSpace=wrap;html=1;align=center;" vertex="1" parent="1">
          <mxGeometry y="70" width="100" height="40" as="geometry" />
        </mxCell>
        <mxCell id="SaRBF44kkJoaySxIrmh5-102" value="FechaVisita" style="ellipse;whiteSpace=wrap;html=1;align=center;" vertex="1" parent="1">
          <mxGeometry x="280" y="545" width="100" height="40" as="geometry" />
        </mxCell>
        <mxCell id="SaRBF44kkJoaySxIrmh5-104" value="Familia" style="ellipse;shape=doubleEllipse;margin=3;whiteSpace=wrap;html=1;align=center;" vertex="1" parent="1">
          <mxGeometry x="750" y="20" width="100" height="40" as="geometry" />
        </mxCell>
        <mxCell id="SaRBF44kkJoaySxIrmh5-106" value="HabitatID" style="ellipse;whiteSpace=wrap;html=1;rounded=1;fontStyle=4" vertex="1" parent="1">
          <mxGeometry x="150" y="-90" width="100" height="50" as="geometry" />
        </mxCell>
        <mxCell id="SaRBF44kkJoaySxIrmh5-109" value="EspecieID" style="ellipse;whiteSpace=wrap;html=1;rounded=1;fontStyle=4" vertex="1" parent="1">
          <mxGeometry x="710" y="-140" width="100" height="50" as="geometry" />
        </mxCell>
        <mxCell id="SaRBF44kkJoaySxIrmh5-111" value="AnimalID" style="ellipse;whiteSpace=wrap;html=1;rounded=1;fontStyle=4" vertex="1" parent="1">
          <mxGeometry x="550" y="245" width="100" height="50" as="geometry" />
        </mxCell>
        <mxCell id="SaRBF44kkJoaySxIrmh5-113" value="CuidadorID" style="ellipse;whiteSpace=wrap;html=1;rounded=1;fontStyle=4" vertex="1" parent="1">
          <mxGeometry x="727" y="495" width="100" height="50" as="geometry" />
        </mxCell>
        <mxCell id="SaRBF44kkJoaySxIrmh5-115" value="VisitanteID" style="ellipse;whiteSpace=wrap;html=1;rounded=1;fontStyle=4" vertex="1" parent="1">
          <mxGeometry x="280" y="480" width="100" height="50" as="geometry" />
        </mxCell>
      </root>
    </mxGraphModel>
  </diagram>
</mxfile>
